<?xml version="1.0" encoding="UTF-8" standalone="no"?>
<!DOCTYPE svg PUBLIC "-//W3C//DTD SVG 1.1//EN"
 "http://www.w3.org/Graphics/SVG/1.1/DTD/svg11.dtd">
<!-- Generated by graphviz version 2.43.0 (0)
 -->
<!-- Title: %3 Pages: 1 -->
<svg width="384pt" height="230pt"
 viewBox="0.00 0.00 383.83 230.08" xmlns="http://www.w3.org/2000/svg" xmlns:xlink="http://www.w3.org/1999/xlink">
<g id="graph0" class="graph" transform="scale(1 1) rotate(0) translate(4 226.08)">
<title>%3</title>
<polygon fill="white" stroke="transparent" points="-4,4 -4,-226.08 379.83,-226.08 379.83,4 -4,4"/>
<!-- behaviour_planner -->
<g id="node1" class="node">
<title>behaviour_planner</title>
<ellipse fill="none" stroke="black" stroke-width="3" cx="203.29" cy="-111.04" rx="172.57" ry="24.08"/>
<text text-anchor="middle" x="203.29" y="-104.84" font-family="Times,serif" font-size="24.00">behaviour_planner</text>
</g>
<!-- local_planner -->
<g id="node2" class="node">
<title>local_planner</title>
<ellipse fill="none" stroke="black" cx="203.29" cy="-18" rx="72.29" ry="18"/>
<text text-anchor="middle" x="203.29" y="-14.3" font-family="Times,serif" font-size="14.00">local_planner</text>
</g>
<!-- behaviour_planner&#45;&gt;local_planner -->
<g id="edge1" class="edge">
<title>behaviour_planner&#45;&gt;local_planner</title>
<path fill="none" stroke="black" d="M203.29,-86.6C203.29,-74.25 203.29,-59.04 203.29,-46.18"/>
<polygon fill="black" stroke="black" points="206.79,-46.04 203.29,-36.04 199.79,-46.04 206.79,-46.04"/>
<text text-anchor="middle" x="258.79" y="-57.8" font-family="Times,serif" font-size="14.00">behaviour_path</text>
</g>
<!-- global_planner -->
<g id="node3" class="node">
<title>global_planner</title>
<ellipse fill="none" stroke="black" cx="79.29" cy="-204.08" rx="79.09" ry="18"/>
<text text-anchor="middle" x="79.29" y="-200.38" font-family="Times,serif" font-size="14.00">global_planner</text>
</g>
<!-- global_planner&#45;&gt;behaviour_planner -->
<g id="edge2" class="edge">
<title>global_planner&#45;&gt;behaviour_planner</title>
<path fill="none" stroke="black" d="M101.75,-186.6C119.05,-173.9 143.39,-156.02 163.91,-140.96"/>
<polygon fill="black" stroke="black" points="166.15,-143.65 172.14,-134.91 162.01,-138.01 166.15,-143.65"/>
<text text-anchor="middle" x="161.79" y="-156.88" font-family="Times,serif" font-size="14.00">path</text>
</g>
<!-- dft -->
<g id="node4" class="node">
<title>dft</title>
<ellipse fill="none" stroke="black" cx="203.29" cy="-204.08" rx="27" ry="18"/>
<text text-anchor="middle" x="203.29" y="-200.38" font-family="Times,serif" font-size="14.00">dft</text>
</g>
<!-- dft&#45;&gt;behaviour_planner -->
<g id="edge3" class="edge">
<title>dft&#45;&gt;behaviour_planner</title>
<path fill="none" stroke="black" d="M203.29,-185.96C203.29,-174.55 203.29,-159.17 203.29,-145.4"/>
<polygon fill="black" stroke="black" points="206.79,-145.27 203.29,-135.27 199.79,-145.27 206.79,-145.27"/>
<text text-anchor="middle" x="240.79" y="-156.88" font-family="Times,serif" font-size="14.00">detections</text>
</g>
<!-- dummy_dft -->
<g id="node5" class="node">
<title>dummy_dft</title>
<ellipse fill="none" stroke="black" cx="311.29" cy="-204.08" rx="63.09" ry="18"/>
<text text-anchor="middle" x="311.29" y="-200.38" font-family="Times,serif" font-size="14.00">dummy_dft</text>
</g>
<!-- dummy_dft&#45;&gt;behaviour_planner -->
<g id="edge4" class="edge">
<title>dummy_dft&#45;&gt;behaviour_planner</title>
<path fill="none" stroke="black" d="M304.44,-186.17C299.51,-175.63 292.02,-162.37 282.29,-153.08 276.99,-148.02 270.94,-143.43 264.6,-139.3"/>
<polygon fill="black" stroke="black" points="266.18,-136.16 255.82,-133.96 262.55,-142.14 266.18,-136.16"/>
<text text-anchor="middle" x="330.79" y="-156.88" font-family="Times,serif" font-size="14.00">detections</text>
</g>
</g>
</svg>
